<?xml version="1.0" encoding="UTF-8" standalone="no"?>
<svg
   xmlns:dc="http://purl.org/dc/elements/1.1/"
   xmlns:cc="http://creativecommons.org/ns#"
   xmlns:rdf="http://www.w3.org/1999/02/22-rdf-syntax-ns#"
   xmlns:svg="http://www.w3.org/2000/svg"
   xmlns="http://www.w3.org/2000/svg"
   xmlns:xlink="http://www.w3.org/1999/xlink"
   xmlns:sodipodi="http://sodipodi.sourceforge.net/DTD/sodipodi-0.dtd"
   xmlns:inkscape="http://www.inkscape.org/namespaces/inkscape"
   width="25.125"
   height="40.21875"
   id="svg2"
   version="1.1"
   inkscape:version="0.48.4 r9939"
   sodipodi:docname="marker.svg">
  <metadata
     id="metadata74">
    <rdf:RDF>
      <cc:Work
         rdf:about="">
        <dc:format>image/svg+xml</dc:format>
        <dc:type
           rdf:resource="http://purl.org/dc/dcmitype/StillImage" />
      </cc:Work>
    </rdf:RDF>
  </metadata>
  <sodipodi:namedview
     pagecolor="#ffffff"
     bordercolor="#666666"
     borderopacity="1"
     objecttolerance="10"
     gridtolerance="10"
     guidetolerance="10"
     inkscape:pageopacity="0"
     inkscape:pageshadow="2"
     inkscape:window-width="1249"
     inkscape:window-height="1005"
     id="namedview72"
     showgrid="false"
     fit-margin-top="0"
     fit-margin-left="0"
     fit-margin-right="0"
     fit-margin-bottom="0"
     inkscape:zoom="5.0743661"
     inkscape:cx="27.887301"
     inkscape:cy="8.200992"
     inkscape:window-x="0"
     inkscape:window-y="0"
     inkscape:window-maximized="1"
     inkscape:current-layer="svg2" />
  <defs
     id="defs4">
    <linearGradient
       id="b">
      <stop
         offset="0"
         stop-color="#2e6c97"
         id="stop7" />
      <stop
         offset="1"
         stop-color="#3883b7"
         id="stop9" />
    </linearGradient>
    <linearGradient
       id="a">
      <stop
         offset="0"
         stop-color="#126fc6"
         id="stop12" />
      <stop
         offset="1"
         stop-color="#4c9cd1"
         id="stop14" />
    </linearGradient>
    <linearGradient
       xlink:href="#a"
       id="c"
       gradientUnits="userSpaceOnUse"
       gradientTransform="translate(-432.7835,-503.3495)"
       x1="445.30099"
       y1="541.28601"
       x2="445.30099"
       y2="503.72" />
    <linearGradient
       xlink:href="#b"
       id="d"
       gradientUnits="userSpaceOnUse"
       gradientTransform="translate(-341.2035,-503.3505)"
       x1="351.74799"
       y1="522.77399"
       x2="351.74799"
       y2="503.72101" />
  </defs>
  <rect
     y="4.5125122"
     x="6.3414917"
     height="14.5"
     width="12.625"
     id="rect44"
     style="fill:#ffffff" />
  <path
     d="m 12.6065,0.5495 c -6.573,0 -12.044,5.691 -12.044,11.866 0,2.778 1.564,6.308 2.694,8.746 l 9.306,17.872 9.262,-17.872 c 1.13,-2.438 2.738,-5.791 2.738,-8.746 0,-6.175 -5.383,-11.866 -11.956,-11.866 z m 0,7.155 c 2.584,0.017 4.679,2.122 4.679,4.71 0,2.588 -2.095,4.663 -4.679,4.679 -2.584,-0.017 -4.679,-2.09 -4.679,-4.679 0,-2.588 2.095,-4.693 4.679,-4.71 z"
     id="path46"
     inkscape:connector-curvature="0"
     style="fill:url(#c);stroke:url(#d);stroke-width:1.10000002;stroke-linecap:round" />
  <path
     d="m 12.5935,1.6565 c -5.944,0 -10.938,5.219 -10.938,10.75 0,2.359 1.443,5.832 2.563,8.25 l 0.031,0.031 8.313,15.969 8.25,-15.969 0.031,-0.031 c 1.135,-2.448 2.625,-5.706 2.625,-8.25 0,-5.538 -4.931,-10.75 -10.875,-10.75 z m 0,4.969 c 3.168,0.021 5.781,2.601 5.781,5.781 0,3.18 -2.613,5.761 -5.781,5.781 -3.168,-0.02 -5.75,-2.61 -5.75,-5.781 0,-3.172 2.582,-5.761 5.75,-5.781 z"
     id="path70"
     inkscape:connector-curvature="0"
     style="fill:none;stroke:#ffffff;stroke-width:1.10000002;stroke-linecap:round;stroke-opacity:0.122" />
</svg>
